<?xml version="1.0" encoding="utf-8"?>
<!-- Generator: Adobe Illustrator 18.1.0, SVG Export Plug-In . SVG Version: 6.00 Build 0)  -->
<svg version="1.1" id="Layer_1" xmlns="http://www.w3.org/2000/svg" xmlns:xlink="http://www.w3.org/1999/xlink" x="0px" y="0px"
	 viewBox="0 0 960 560" enable-background="new 0 0 960 560" xml:space="preserve">
<g>
	<g>
		<path fill="#00CC99" d="M6.8,19.3c-0.1,0-0.1,0-0.2,0c-0.2-0.1-0.3-0.3-0.3-0.5v-4.1H5.1C2.3,14.7,0,12.4,0,9.6V5.1
			C0,2.3,2.3,0,5.1,0h11.4c2.8,0,5.1,2.3,5.1,5.1v4.6c0,2.8-2.3,5.1-5.1,5.1h-4.9l-4.4,4.4C7,19.2,6.9,19.3,6.8,19.3z M5.1,1
			C2.8,1,1,2.8,1,5.1v4.6c0,2.2,1.8,4.1,4.1,4.1h1.7c0.3,0,0.5,0.2,0.5,0.5v3.4L11,14c0.1-0.1,0.2-0.1,0.4-0.1h5.1
			c2.2,0,4.1-1.8,4.1-4.1V5.1c0-2.2-1.8-4.1-4.1-4.1H5.1z"/>
		<path fill="#00CC99" d="M22.2,25c-0.1,0-0.3-0.1-0.4-0.1l-3.3-3.3h-2.6c-1.9,0-3.4-1.5-3.4-3.4c0-0.3,0.2-0.5,0.5-0.5
			s0.5,0.2,0.5,0.5c0,1.3,1.1,2.4,2.4,2.4h2.9c0.1,0,0.3,0.1,0.4,0.1l2.6,2.6v-2.2c0-0.3,0.2-0.5,0.5-0.5H24c1.3,0,2.4-1.1,2.4-2.4
			v-2.3c0-1.3-1.1-2.4-2.4-2.4c-0.3,0-0.5-0.2-0.5-0.5s0.2-0.5,0.5-0.5c1.9,0,3.4,1.5,3.4,3.4v2.3c0,1.9-1.5,3.4-3.4,3.4h-1.2v2.9
			c0,0.2-0.1,0.4-0.3,0.5C22.3,25,22.3,25,22.2,25z"/>
	</g>
	<g>
		<path fill="#70767F" d="M39,17.6l0.7-1c0.3,0.4,0.8,0.7,1.3,0.9c0.5,0.3,1.1,0.4,1.7,0.4c0.7,0,1.2-0.1,1.6-0.4
			c0.4-0.3,0.6-0.7,0.6-1.1c0-0.3-0.1-0.5-0.3-0.7s-0.5-0.4-0.8-0.4S43,15,42.7,14.9s-0.8-0.2-1.2-0.3s-0.8-0.3-1.1-0.4
			c-0.3-0.2-0.6-0.4-0.8-0.8c-0.2-0.3-0.3-0.7-0.3-1.2c0-0.8,0.3-1.4,0.9-1.9c0.6-0.5,1.4-0.8,2.5-0.8c1.4,0,2.5,0.5,3.4,1.4l-0.7,1
			c-0.3-0.3-0.7-0.6-1.1-0.8c-0.5-0.2-1-0.3-1.6-0.3s-1.1,0.1-1.5,0.4c-0.4,0.3-0.6,0.6-0.6,1.1c0,0.3,0.1,0.5,0.3,0.7
			s0.5,0.3,0.8,0.4s0.7,0.2,1.1,0.3c0.4,0.1,0.8,0.2,1.2,0.3s0.8,0.3,1.1,0.4s0.6,0.4,0.8,0.8c0.2,0.3,0.3,0.7,0.3,1.2
			c0,0.8-0.3,1.5-0.9,2c-0.6,0.5-1.5,0.8-2.7,0.8C41.1,19.1,39.9,18.6,39,17.6z"/>
		<path fill="#70767F" d="M48.6,8.1c-0.2-0.2-0.3-0.4-0.3-0.7c0-0.3,0.1-0.5,0.3-0.7s0.4-0.3,0.7-0.3s0.5,0.1,0.7,0.3
			c0.2,0.2,0.3,0.4,0.3,0.7c0,0.3-0.1,0.5-0.3,0.7s-0.4,0.3-0.7,0.3S48.8,8.3,48.6,8.1z M48.6,18.9V9.7H50v9.2H48.6z"/>
		<path fill="#70767F" d="M52.8,18.9V9.7h1.4V11c0.2-0.4,0.7-0.7,1.2-1c0.6-0.3,1.2-0.5,1.8-0.5c0.7,0,1.2,0.2,1.6,0.5
			c0.4,0.3,0.7,0.7,0.8,1.2c0.3-0.5,0.7-0.9,1.3-1.2s1.2-0.5,1.8-0.5c0.8,0,1.5,0.2,1.9,0.7s0.6,1.2,0.6,2.1v6.6h-1.4v-6.2
			c0-1.3-0.6-1.9-1.7-1.9c-0.5,0-0.9,0.1-1.4,0.4c-0.5,0.3-0.8,0.6-1.1,1v6.7h-1.4v-6.2c0-1.3-0.6-1.9-1.7-1.9
			c-0.4,0-0.9,0.1-1.3,0.4c-0.5,0.3-0.8,0.6-1.1,1v6.7H52.8z"/>
		<path fill="#70767F" d="M68.2,22.4V9.7h1.4v1.4c0.3-0.5,0.8-0.9,1.3-1.2s1.1-0.4,1.8-0.4c1.2,0,2.2,0.4,3,1.3s1.1,2,1.1,3.5
			s-0.4,2.6-1.1,3.5s-1.7,1.3-3,1.3c-0.6,0-1.2-0.1-1.7-0.4s-1-0.7-1.4-1.2v4.9C69.6,22.4,68.2,22.4,68.2,22.4z M69.6,16.4
			c0.3,0.4,0.6,0.8,1.2,1c0.5,0.3,1,0.4,1.6,0.4c0.9,0,1.6-0.3,2.2-1c0.5-0.7,0.8-1.5,0.8-2.6c0-1-0.3-1.9-0.8-2.6
			c-0.5-0.7-1.2-1-2.2-1c-0.5,0-1.1,0.1-1.6,0.4c-0.5,0.3-0.9,0.6-1.2,1V16.4z"/>
		<path fill="#70767F" d="M79.1,18.9V6.2h1.4v12.7H79.1z"/>
		<path fill="#70767F" d="M81.9,9.7h1.6l3,7.5l3.1-7.5h1.5l-4.6,11c-0.5,1.2-1.4,1.8-2.7,1.9c-0.4,0-0.7,0-1-0.1l0.2-1.3
			c0.2,0.1,0.5,0.1,0.8,0.1s0.6-0.1,0.8-0.2c0.2-0.1,0.4-0.4,0.5-0.8l0.6-1.4L81.9,9.7z"/>
		<path fill="#BEC3CC" d="M91.8,17.6l0.7-1c0.3,0.4,0.8,0.7,1.3,0.9c0.5,0.3,1.1,0.4,1.7,0.4c0.7,0,1.2-0.1,1.6-0.4s0.6-0.7,0.6-1.1
			c0-0.3-0.1-0.5-0.3-0.7c-0.2-0.2-0.5-0.4-0.8-0.4s-0.7-0.2-1.1-0.3s-0.8-0.2-1.2-0.3c-0.4-0.1-0.8-0.3-1.1-0.4
			c-0.3-0.2-0.6-0.4-0.8-0.8c-0.2-0.3-0.3-0.7-0.3-1.2c0-0.8,0.3-1.4,0.9-1.9s1.4-0.8,2.5-0.8c1.4,0,2.5,0.5,3.4,1.4l-0.7,1
			c-0.3-0.3-0.7-0.6-1.1-0.8c-0.5-0.2-1-0.3-1.6-0.3S94.4,11,94,11.3c-0.4,0.3-0.6,0.6-0.6,1.1c0,0.3,0.1,0.5,0.3,0.7
			c0.2,0.2,0.5,0.3,0.8,0.4s0.7,0.2,1.1,0.3s0.8,0.2,1.2,0.3c0.4,0.1,0.8,0.3,1.1,0.4s0.6,0.4,0.8,0.8c0.2,0.3,0.3,0.7,0.3,1.2
			c0,0.8-0.3,1.5-0.9,2s-1.5,0.8-2.7,0.8C94,19.1,92.8,18.6,91.8,17.6z"/>
		<path fill="#BEC3CC" d="M101.5,16.7c-0.4-0.7-0.5-1.5-0.5-2.4s0.2-1.7,0.5-2.4s0.9-1.3,1.6-1.7s1.5-0.6,2.4-0.6s1.7,0.2,2.4,0.6
			c0.7,0.4,1.2,1,1.6,1.7s0.5,1.5,0.5,2.4s-0.2,1.7-0.5,2.4c-0.4,0.7-0.9,1.3-1.6,1.7c-0.7,0.4-1.5,0.7-2.4,0.7s-1.7-0.2-2.4-0.7
			C102.4,18,101.8,17.4,101.5,16.7z M102.4,14.3c0,1,0.3,1.8,0.8,2.5c0.5,0.7,1.3,1,2.2,1c0.6,0,1.2-0.2,1.6-0.5s0.8-0.8,1-1.3
			c0.2-0.5,0.3-1.1,0.3-1.8c0-0.6-0.1-1.2-0.3-1.7c-0.2-0.5-0.6-1-1-1.3c-0.5-0.3-1-0.5-1.6-0.5s-1.2,0.2-1.7,0.5s-0.8,0.8-1,1.3
			C102.5,13.1,102.4,13.7,102.4,14.3z"/>
		<path fill="#BEC3CC" d="M111.8,14.3c0-0.9,0.2-1.7,0.6-2.4c0.4-0.7,0.9-1.3,1.6-1.7s1.5-0.6,2.4-0.6c1.4,0,2.5,0.5,3.4,1.6
			l-0.9,0.9c-0.6-0.8-1.4-1.2-2.3-1.2c-1,0-1.7,0.3-2.3,1c-0.6,0.7-0.9,1.5-0.9,2.5s0.3,1.9,0.9,2.6s1.3,1,2.3,1s1.7-0.4,2.3-1.2
			l0.9,0.9c-0.8,1.1-1.9,1.6-3.4,1.6c-1.3,0-2.5-0.5-3.3-1.4C112.2,16.8,111.8,15.7,111.8,14.3z"/>
		<path fill="#BEC3CC" d="M121.8,8.1c-0.2-0.2-0.3-0.4-0.3-0.7c0-0.3,0.1-0.5,0.3-0.7c0.2-0.2,0.4-0.3,0.7-0.3s0.5,0.1,0.7,0.3
			c0.2,0.2,0.3,0.4,0.3,0.7c0,0.3-0.1,0.5-0.3,0.7s-0.4,0.3-0.7,0.3S122,8.3,121.8,8.1z M121.7,18.9V9.7h1.4v9.2H121.7z"/>
		<path fill="#BEC3CC" d="M125.5,16.1c0-0.5,0.1-0.9,0.3-1.3c0.2-0.4,0.4-0.7,0.7-1c0.3-0.2,0.6-0.4,1-0.5s0.8-0.2,1.2-0.2
			c1.3,0,2.3,0.4,3,1.2v-1.7c0-0.6-0.2-1.1-0.7-1.4c-0.4-0.3-1-0.5-1.7-0.5c-1.1,0-2,0.4-2.8,1.3l-0.7-1c1-1,2.2-1.5,3.7-1.5
			c0.5,0,1,0.1,1.4,0.2c0.4,0.1,0.8,0.3,1.1,0.5s0.6,0.6,0.8,1s0.3,0.9,0.3,1.4v6.3h-1.4v-1c-0.8,0.9-1.8,1.3-3,1.3
			c-0.4,0-0.8-0.1-1.1-0.2c-0.4-0.1-0.7-0.3-1-0.6c-0.3-0.2-0.6-0.6-0.7-1C125.6,17,125.5,16.6,125.5,16.1z M126.9,16.1
			c0,0.6,0.2,1.1,0.6,1.4c0.4,0.4,1,0.6,1.7,0.6c0.5,0,1-0.1,1.4-0.3c0.4-0.2,0.8-0.5,1.1-0.8v-1.7c-0.3-0.4-0.6-0.6-1.1-0.8
			c-0.4-0.2-0.9-0.3-1.4-0.3c-0.7,0-1.2,0.2-1.6,0.6C127.1,15,126.9,15.5,126.9,16.1z"/>
		<path fill="#BEC3CC" d="M136,18.9V6.2h1.4v12.7H136z"/>
	</g>
</g>
<g>
	<path fill="#00CC99" d="M9.6,56.2c-0.1,0-0.1,0-0.2,0c-0.2-0.1-0.3-0.3-0.3-0.5v-4.3H8.9C4,51.4,0,47.7,0,43.2S4,35,8.9,35h10.4
		c4.9,0,8.9,3.7,8.9,8.2c0,1.1-0.2,2.2-0.7,3.2c-0.1,0.3-0.4,0.4-0.7,0.2c-0.3-0.1-0.4-0.4-0.2-0.7c0.4-0.9,0.6-1.8,0.6-2.8
		c0-4-3.5-7.2-7.9-7.2H8.9C4.5,36,1,39.2,1,43.2s3.5,7.2,7.9,7.2h0.6c0.3,0,0.5,0.2,0.5,0.5v3.6l4.3-4c0.1-0.1,0.2-0.1,0.3-0.1h0.6
		c0.3,0,0.5,0.2,0.5,0.5s-0.2,0.5-0.5,0.5h-0.5l-5,4.6C9.8,56.2,9.7,56.2,9.6,56.2z"/>
	<g>
		<path fill="#00CC99" d="M23.8,61c-3.8,0-7-2.9-7-6.5s3.1-6.5,7-6.5c3.8,0,7,2.9,7,6.5S27.6,61,23.8,61z M23.8,49.1
			c-3.3,0-6,2.4-6,5.5c0,3,2.7,5.5,6,5.5s6-2.4,6-5.5S27.1,49.1,23.8,49.1z"/>
		<path fill="#00CC99" d="M23.8,58c-0.3,0-0.5-0.2-0.5-0.5v-6c0-0.3,0.2-0.5,0.5-0.5s0.5,0.2,0.5,0.5v6C24.3,57.8,24.1,58,23.8,58z"
			/>
		<path fill="#00CC99" d="M27,55h-6.5c-0.3,0-0.5-0.2-0.5-0.5s0.2-0.5,0.5-0.5H27c0.3,0,0.5,0.2,0.5,0.5S27.3,55,27,55z"/>
	</g>
</g>
<g>
	<path fill="#63656A" d="M6.6,84.2c-3.7,0-6.6-3-6.6-6.6S3,71,6.6,71s6.6,3,6.6,6.6S10.3,84.2,6.6,84.2z M6.6,72
		C3.5,72,1,74.5,1,77.6s2.5,5.6,5.6,5.6s5.6-2.5,5.6-5.6S9.7,72,6.6,72z"/>
	<path fill="#63656A" d="M15.5,86.5c-0.1,0-0.2,0-0.3-0.1l-4.5-4.1c-0.2-0.2-0.2-0.5,0-0.7s0.5-0.2,0.7,0l4.5,4.1
		c0.2,0.2,0.2,0.5,0,0.7C15.8,86.5,15.6,86.5,15.5,86.5z"/>
</g>
<g>
	<path fill="#FFFFFF" d="M9,108c-1.8,0-3.2-1.4-3.2-3.2s1.4-3.2,3.2-3.2s3.2,1.4,3.2,3.2S10.8,108,9,108z M9,102.6
		c-1.2,0-2.2,1-2.2,2.2s1,2.2,2.2,2.2s2.2-1,2.2-2.2S10.2,102.6,9,102.6z"/>
	<path fill="#FFFFFF" d="M16,110.8H2c-1.1,0-2-0.9-2-2V102c0-1.1,0.9-2.2,2-2.2h3.2c0.3,0,0.5,0.2,0.5,0.5s-0.2,0.5-0.5,0.5H2
		c-0.5,0-1,0.6-1,1.2v6.8c0,0.6,0.4,1,1,1h14c0.6,0,1-0.4,1-1V102c0-0.6-0.5-1.2-1-1.2h-3.2c-0.3,0-0.5-0.2-0.5-0.5s0.2-0.5,0.5-0.5
		H16c1.1,0,2,1,2,2.2v6.8C18,109.9,17.1,110.8,16,110.8z"/>
	<path fill="#FFFFFF" d="M12.8,100.8c-0.1,0-0.2,0-0.3-0.1l-2-1.9H7.6l-2,1.9c-0.2,0.2-0.5,0.2-0.7,0s-0.2-0.5,0-0.7l2.2-2
		c0.1-0.1,0.2-0.1,0.3-0.1h3.3c0.1,0,0.2,0,0.3,0.1l2.2,2c0.2,0.2,0.2,0.5,0,0.7C13.1,100.7,13,100.8,12.8,100.8z"/>
</g>
<g>
	<path fill="#FFFFFF" d="M12.1,134.5H1.3c-0.7,0-1.3-0.7-1.3-1.7v-9.6c0-1,0.6-1.7,1.3-1.7h10.8c0.7,0,1.3,0.7,1.3,1.7v9.6
		C13.4,133.8,12.8,134.5,12.1,134.5z M1.3,122.5c-0.1,0-0.3,0.3-0.3,0.7v9.6c0,0.4,0.2,0.7,0.3,0.7h10.8c0.1,0,0.3-0.2,0.3-0.7v-9.6
		c0-0.5-0.2-0.7-0.3-0.7H1.3z"/>
	<path fill="#FFFFFF" d="M10.5,126.1H2.8c-0.3,0-0.5-0.2-0.5-0.5s0.2-0.5,0.5-0.5h7.7c0.3,0,0.5,0.2,0.5,0.5S10.8,126.1,10.5,126.1z
		"/>
	<path fill="#FFFFFF" d="M17,132.9c-0.2,0-0.4-0.1-0.5-0.2l-3.9-2.5c-0.2-0.2-0.3-0.5-0.1-0.7c0.1-0.2,0.5-0.3,0.7-0.1l3.8,2.5
		c0-0.1,0-0.1,0-0.3v-7.2c0-0.1,0-0.2,0-0.3l-3.8,2.5c-0.2,0.1-0.5,0.1-0.7-0.1c-0.1-0.2-0.1-0.5,0.1-0.7l3.9-2.5
		c0.3-0.2,0.6-0.2,0.9-0.1c0.4,0.2,0.6,0.6,0.6,1.2v7.2c0,0.6-0.2,1-0.6,1.2C17.3,132.9,17.2,132.9,17,132.9z"/>
</g>
<g>
	<path d="M29,108c-1.8,0-3.2-1.4-3.2-3.2s1.4-3.2,3.2-3.2s3.2,1.4,3.2,3.2S30.8,108,29,108z M29,102.6c-1.2,0-2.2,1-2.2,2.2
		s1,2.2,2.2,2.2s2.2-1,2.2-2.2S30.2,102.6,29,102.6z"/>
	<path d="M36,110.8H22c-1.1,0-2-0.9-2-2V102c0-1.1,0.9-2.2,2-2.2h3.2c0.3,0,0.5,0.2,0.5,0.5s-0.2,0.5-0.5,0.5H22c-0.5,0-1,0.6-1,1.2
		v6.8c0,0.6,0.4,1,1,1h14c0.6,0,1-0.4,1-1V102c0-0.6-0.5-1.2-1-1.2h-3.2c-0.3,0-0.5-0.2-0.5-0.5s0.2-0.5,0.5-0.5H36c1.1,0,2,1,2,2.2
		v6.8C38,109.9,37.1,110.8,36,110.8z"/>
	<path d="M32.8,100.8c-0.1,0-0.2,0-0.3-0.1l-2-1.9h-2.9l-2,1.9c-0.2,0.2-0.5,0.2-0.7,0c-0.2-0.2-0.2-0.5,0-0.7l2.2-2
		c0.1-0.1,0.2-0.1,0.3-0.1h3.3c0.1,0,0.2,0,0.3,0.1l2.2,2c0.2,0.2,0.2,0.5,0,0.7C33.1,100.7,33,100.8,32.8,100.8z"/>
</g>
<g>
	<path d="M32.1,134.5H21.3c-0.7,0-1.3-0.7-1.3-1.7v-9.6c0-1,0.6-1.7,1.3-1.7h10.8c0.7,0,1.3,0.7,1.3,1.7v9.6
		C33.4,133.8,32.8,134.5,32.1,134.5z M21.3,122.5c-0.1,0-0.3,0.3-0.3,0.7v9.6c0,0.4,0.2,0.7,0.3,0.7h10.8c0.1,0,0.3-0.2,0.3-0.7
		v-9.6c0-0.5-0.2-0.7-0.3-0.7H21.3z"/>
	<path d="M30.5,126.1h-7.7c-0.3,0-0.5-0.2-0.5-0.5s0.2-0.5,0.5-0.5h7.7c0.3,0,0.5,0.2,0.5,0.5S30.8,126.1,30.5,126.1z"/>
	<path d="M37,132.9c-0.2,0-0.4-0.1-0.5-0.2l-3.9-2.5c-0.2-0.2-0.3-0.5-0.1-0.7c0.1-0.2,0.5-0.3,0.7-0.1l3.8,2.5c0-0.1,0-0.1,0-0.3
		v-7.2c0-0.1,0-0.2,0-0.3l-3.8,2.5c-0.2,0.1-0.5,0.1-0.7-0.1c-0.1-0.2-0.1-0.5,0.1-0.7l3.9-2.5c0.3-0.2,0.6-0.2,0.9-0.1
		c0.4,0.2,0.6,0.6,0.6,1.2v7.2c0,0.6-0.2,1-0.6,1.2C37.3,132.9,37.2,132.9,37,132.9z"/>
</g>
<g>
	<rect y="144" fill="#FFFFFF" width="3.3" height="3.3"/>
	<rect x="6.7" y="144" fill="#FFFFFF" width="3.3" height="3.3"/>
	<rect x="6.7" y="150.7" fill="#FFFFFF" width="3.3" height="3.3"/>
	<rect y="150.7" fill="#FFFFFF" width="3.3" height="3.3"/>
</g>
<g>
	<rect x="0" y="163.5" fill="#FFFFFF" width="9" height="1"/>
	<rect x="0" y="167.5" fill="#FFFFFF" width="9" height="1"/>
	<rect x="0" y="171.5" fill="#FFFFFF" width="9" height="1"/>
</g>
<g>
	<path fill="#BEC3CC" d="M12.5,199c-0.2,0-0.4-0.1-0.5-0.3c-1.3-3.3-3.3-4-4.8-4c-0.6,0-1.1,0.1-1.4,0.2v2.8c0,0.2-0.1,0.4-0.3,0.5
		c-0.2,0.1-0.4,0-0.6-0.1l-4.9-5.6c-0.2-0.2-0.2-0.5,0-0.7l4.9-5.6c0.1-0.2,0.4-0.2,0.6-0.1c0.2,0.1,0.3,0.3,0.3,0.5v2.7
		c0.1,0,0.1,0,0.2,0c1.6,0,6.9,0.7,6.9,9.3C13,198.7,12.8,198.9,12.5,199C12.6,199,12.5,199,12.5,199z M1.2,192.1l3.7,4.3v-1.9
		c0-0.2,0.1-0.4,0.3-0.5c0.1,0,4.1-1.5,6.7,2.1c-0.8-5.4-4.2-6-5.8-6c-0.4,0-0.6,0-0.6,0c-0.1,0-0.3,0-0.4-0.1
		c-0.1-0.1-0.2-0.2-0.2-0.4v-1.9L1.2,192.1z"/>
</g>
<g>
	<path fill="#BEC3CC" d="M32.5,199c-0.2,0-0.4-0.1-0.5-0.3c-1.3-3.3-3.3-4-4.8-4c-0.6,0-1.1,0.1-1.4,0.2v2.8c0,0.2-0.1,0.4-0.3,0.5
		c-0.2,0.1-0.4,0-0.6-0.1l-4.9-5.6c-0.2-0.2-0.2-0.5,0-0.7l4.9-5.6c0.1-0.2,0.4-0.2,0.6-0.1c0.2,0.1,0.3,0.3,0.3,0.5v2.7
		c0.1,0,0.1,0,0.2,0c1.6,0,6.9,0.7,6.9,9.3C33,198.7,32.8,198.9,32.5,199C32.6,199,32.5,199,32.5,199z"/>
</g>
<g>
	<path fill="#BEC3CC" d="M6.5,222c-0.1,0-0.2,0-0.3-0.1c-0.3-0.2-6.2-4-6.2-8.8c0-2.7,1.8-4.1,3.5-4.1c1.1,0,2.3,0.6,3,1.9
		c0.7-1.3,1.9-1.9,3.1-1.9c1.7,0,3.4,1.3,3.4,3.8c0,4.4-5.9,8.9-6.2,9.1C6.7,221.9,6.6,222,6.5,222z M3.5,210c-1.2,0-2.5,1-2.5,3.1
		c0,3.7,4.3,6.9,5.5,7.7c1.2-0.9,5.5-4.6,5.5-8.1c0-1.9-1.2-2.8-2.4-2.8c-1,0-2.3,0.7-2.6,2.6c0,0.2-0.2,0.4-0.5,0.4
		S6,212.8,6,212.6C5.7,210.7,4.5,210,3.5,210z"/>
</g>
<g>
	<path fill="#BEC3CC" d="M26.5,222c-0.1,0-0.2,0-0.3-0.1c-0.3-0.2-6.2-4-6.2-8.8c0-2.7,1.8-4.1,3.5-4.1c1.1,0,2.3,0.6,3,1.9
		c0.7-1.3,1.9-1.9,3.1-1.9c1.7,0,3.4,1.3,3.4,3.8c0,4.4-5.9,8.9-6.2,9.1C26.7,221.9,26.6,222,26.5,222z"/>
</g>
<g>
	<path fill="#70767F" d="M11,252.6c-5.8,0-10.5-4.7-10.5-10.5s4.7-10.5,10.5-10.5s10.5,4.7,10.5,10.5S16.8,252.6,11,252.6z
		 M11,232.6c-5.2,0-9.5,4.3-9.5,9.5s4.3,9.5,9.5,9.5s9.5-4.3,9.5-9.5S16.2,232.6,11,232.6z"/>
	<path fill="#70767F" d="M7.1,246.5c-0.1,0-0.3,0-0.4-0.1c-0.2-0.2-0.2-0.5,0-0.7l7.7-7.7c0.2-0.2,0.5-0.2,0.7,0s0.2,0.5,0,0.7
		l-7.7,7.7C7.4,246.4,7.3,246.5,7.1,246.5z"/>
	<path fill="#70767F" d="M14.9,246.5c-0.1,0-0.3,0-0.4-0.1l-7.7-7.7c-0.2-0.2-0.2-0.5,0-0.7s0.5-0.2,0.7,0l7.7,7.7
		c0.2,0.2,0.2,0.5,0,0.7C15.1,246.4,15,246.5,14.9,246.5z"/>
</g>
<g>
	<path fill="#BEC3CC" d="M17,288.9H1V287c0-1.1,0.8-2.2,1.9-2.5l3.6-1.2v-1.6h1v2.4l-4.3,1.4C2.5,285.6,2,286.3,2,287v0.9h14V287
		c0-0.7-0.5-1.3-1.2-1.6l-4.3-1.4v-2.5h1v1.8l3.6,1.2c1.1,0.4,1.9,1.4,1.9,2.5V288.9z"/>
	<path fill="#BEC3CC" d="M8.9,282.6c-2.5,0-4.4-2.2-4.4-4.9s2-4.9,4.4-4.9s4.4,2.2,4.4,4.9S11.4,282.6,8.9,282.6z M8.9,273.9
		c-1.9,0-3.4,1.7-3.4,3.9s1.5,3.9,3.4,3.9s3.4-1.7,3.4-3.9S10.8,273.9,8.9,273.9z"/>
	<path fill="#BEC3CC" d="M11.8,277.9c-0.9,0-1.7-0.4-2.3-1.2c-0.8,0.7-2,1.1-2.9,1.1c-0.6,0-1.2-0.1-1.7-0.4l0.4-0.9
		c0.4,0.2,0.8,0.3,1.3,0.3c1,0,2.2-0.6,2.5-1.2l0.4-0.7l0.4,0.7c0.6,1,1.3,1.4,2.4,1.2c0.1,0,0.2,0,0.3,0l0.1,0l0.1,1l-0.2,0
		c0,0-0.1,0-0.2,0C12.3,277.9,12,277.9,11.8,277.9z"/>
</g>
<g>
	<path fill="#BEC3CC" d="M16.4,322.2H2.6c-0.9,0-1.6-0.8-1.6-1.8V311c0-1,0.7-1.8,1.6-1.8h13.7c0.9,0,1.6,0.8,1.6,1.8v9.4
		C18,321.4,17.3,322.2,16.4,322.2z M2.6,310.2c-0.4,0-0.6,0.4-0.6,0.8v9.4c0,0.4,0.3,0.8,0.6,0.8h13.7c0.4,0,0.6-0.4,0.6-0.8V311
		c0-0.4-0.3-0.8-0.6-0.8H2.6z"/>
	<path fill="#BEC3CC" d="M9.5,317.5c-0.1,0-0.2,0-0.3-0.1l-7.6-6.9c-0.2-0.2-0.2-0.5,0-0.7c0.2-0.2,0.5-0.2,0.7,0l7.3,6.6l7.3-6.6
		c0.2-0.2,0.5-0.2,0.7,0c0.2,0.2,0.2,0.5,0,0.7l-7.6,6.9C9.7,317.5,9.6,317.5,9.5,317.5z"/>
</g>
<g>
	<path fill="#BEC3CC" d="M15,347.6c-0.2-2.9-2.6-5.1-5.5-5.1c-2.9,0-5.3,2.3-5.5,5.1H1v11.8h17v-11.8H15z M9.5,343.5
		c2.4,0,4.3,1.9,4.5,4.2H5C5.2,345.3,7.1,343.5,9.5,343.5z M17,358.5H1.9v-9.9H17V358.5z"/>
	<circle fill="#BEC3CC" cx="9.6" cy="353.9" r="1.1"/>
</g>
<g>
	<path fill="#00B286" d="M17,395.9H1V394c0-1.1,0.8-2.2,1.9-2.5l3.6-1.2v-1.6h1v2.4l-4.3,1.4C2.5,392.6,2,393.3,2,394v0.9h14V394
		c0-0.7-0.5-1.3-1.2-1.6l-4.3-1.4v-2.5h1v1.8l3.6,1.2c1.1,0.4,1.9,1.4,1.9,2.5V395.9z"/>
	<path fill="#00B286" d="M8.9,389.6c-2.5,0-4.4-2.2-4.4-4.9s2-4.9,4.4-4.9s4.4,2.2,4.4,4.9S11.4,389.6,8.9,389.6z M8.9,380.9
		c-1.9,0-3.4,1.7-3.4,3.9s1.5,3.9,3.4,3.9s3.4-1.7,3.4-3.9S10.8,380.9,8.9,380.9z"/>
	<path fill="#00B286" d="M11.8,384.9c-0.9,0-1.7-0.4-2.3-1.2c-0.8,0.7-2,1.1-2.9,1.1c-0.6,0-1.2-0.1-1.7-0.4l0.4-0.9
		c0.4,0.2,0.8,0.3,1.3,0.3c1,0,2.2-0.6,2.5-1.2l0.4-0.7l0.4,0.7c0.6,1,1.3,1.4,2.4,1.2c0.1,0,0.2,0,0.3,0l0.1,0l0.1,1l-0.2,0
		c0,0-0.1,0-0.2,0C12.3,384.9,12,384.9,11.8,384.9z"/>
</g>
<g>
	<path fill="#00B286" d="M16.4,429.2H2.6c-0.9,0-1.6-0.8-1.6-1.8V418c0-1,0.7-1.8,1.6-1.8h13.7c0.9,0,1.6,0.8,1.6,1.8v9.4
		C18,428.4,17.3,429.2,16.4,429.2z M2.6,417.2c-0.4,0-0.6,0.4-0.6,0.8v9.4c0,0.4,0.3,0.8,0.6,0.8h13.7c0.4,0,0.6-0.4,0.6-0.8V418
		c0-0.4-0.3-0.8-0.6-0.8H2.6z"/>
	<path fill="#00B286" d="M9.5,424.5c-0.1,0-0.2,0-0.3-0.1l-7.6-6.9c-0.2-0.2-0.2-0.5,0-0.7c0.2-0.2,0.5-0.2,0.7,0l7.3,6.6l7.3-6.6
		c0.2-0.2,0.5-0.2,0.7,0c0.2,0.2,0.2,0.5,0,0.7l-7.6,6.9C9.7,424.5,9.6,424.5,9.5,424.5z"/>
</g>
<g>
	<path fill="#00B286" d="M15,454.6c-0.2-2.9-2.6-5.1-5.5-5.1c-2.9,0-5.3,2.3-5.5,5.1H1v11.8h17v-11.8H15z M9.5,450.5
		c2.4,0,4.3,1.9,4.5,4.2H5C5.2,452.3,7.1,450.5,9.5,450.5z M17,465.5H1.9v-9.9H17V465.5z"/>
	<circle fill="#00B286" cx="9.6" cy="460.9" r="1.1"/>
</g>
<g>
	<path fill="#00B286" d="M12,485.6c-6.6,0-12,5.4-12,12v1c0,6.6,5.4,12,12,12h26c6.6,0,12-5.4,12-12v-1c0-6.6-5.4-12-12-12H12z
		 M37.6,509.1c-6.1,0-11.1-5-11.1-11.1c0-6.1,5-11.1,11.1-11.1c6.1,0,11.1,5,11.1,11.1C48.6,504.2,43.7,509.1,37.6,509.1z"/>
</g>
<g>
	<path fill="#DEE1E5" d="M89,510.6c6.6,0,12-5.4,12-12v-1c0-6.6-5.4-12-12-12H63c-6.6,0-12,5.4-12,12v1c0,6.6,5.4,12,12,12H89z
		 M63.4,487c6.1,0,11.1,5,11.1,11.1c0,6.1-5,11.1-11.1,11.1c-6.1,0-11.1-5-11.1-11.1C52.4,492,57.3,487,63.4,487z"/>
</g>
</svg>
