<?xml version="1.0" encoding="utf-8"?>
<!-- Generator: Adobe Illustrator 18.1.0, SVG Export Plug-In . SVG Version: 6.00 Build 0)  -->
<svg version="1.1" id="Layer_1" xmlns="http://www.w3.org/2000/svg" xmlns:xlink="http://www.w3.org/1999/xlink" x="0px" y="0px"
	 viewBox="0 0 960 560" enable-background="new 0 0 960 560" xml:space="preserve">
<g>
	<g>
		<path fill="#00CC99" d="M6.8,19.3c-0.1,0-0.1,0-0.2,0c-0.2-0.1-0.3-0.3-0.3-0.5v-4.1H5.1C2.3,14.7,0,12.4,0,9.6V5.1
			C0,2.3,2.3,0,5.1,0h11.4c2.8,0,5.1,2.3,5.1,5.1v4.6c0,2.8-2.3,5.1-5.1,5.1h-4.9l-4.4,4.4C7,19.2,6.9,19.3,6.8,19.3z M5.1,1
			C2.8,1,1,2.8,1,5.1v4.6c0,2.2,1.8,4.1,4.1,4.1h1.7c0.3,0,0.5,0.2,0.5,0.5v3.4l3.7-3.7c0.1-0.1,0.2-0.1,0.4-0.1h5.1
			c2.2,0,4.1-1.8,4.1-4.1V5.1c0-2.2-1.8-4.1-4.1-4.1H5.1z"/>
		<path fill="#00CC99" d="M22.2,25c-0.1,0-0.3-0.1-0.4-0.1l-3.3-3.3h-2.6c-1.9,0-3.4-1.5-3.4-3.4c0-0.3,0.2-0.5,0.5-0.5
			s0.5,0.2,0.5,0.5c0,1.3,1.1,2.4,2.4,2.4h2.9c0.1,0,0.3,0.1,0.4,0.1l2.6,2.6v-2.2c0-0.3,0.2-0.5,0.5-0.5h1.7c1.3,0,2.4-1.1,2.4-2.4
			v-2.3c0-1.3-1.1-2.4-2.4-2.4c-0.3,0-0.5-0.2-0.5-0.5s0.2-0.5,0.5-0.5c1.9,0,3.4,1.5,3.4,3.4v2.3c0,1.9-1.5,3.4-3.4,3.4h-1.2v2.9
			c0,0.2-0.1,0.4-0.3,0.5C22.3,25,22.3,25,22.2,25z"/>
	</g>
	<g>
		<path fill="#70767F" d="M39,17.6l0.7-1c0.3,0.4,0.8,0.7,1.3,0.9c0.5,0.3,1.1,0.4,1.7,0.4c0.7,0,1.2-0.1,1.6-0.4
			c0.4-0.3,0.6-0.7,0.6-1.1c0-0.3-0.1-0.5-0.3-0.7c-0.2-0.2-0.5-0.4-0.8-0.4S43,15,42.7,14.9s-0.8-0.2-1.2-0.3
			c-0.4-0.1-0.8-0.3-1.1-0.4c-0.3-0.2-0.6-0.4-0.8-0.8c-0.2-0.3-0.3-0.7-0.3-1.2c0-0.8,0.3-1.4,0.9-1.9c0.6-0.5,1.4-0.8,2.5-0.8
			c1.4,0,2.5,0.5,3.4,1.4l-0.7,1c-0.3-0.3-0.7-0.6-1.1-0.8c-0.5-0.2-1-0.3-1.6-0.3c-0.6,0-1.1,0.1-1.5,0.4c-0.4,0.3-0.6,0.6-0.6,1.1
			c0,0.3,0.1,0.5,0.3,0.7c0.2,0.2,0.5,0.3,0.8,0.4s0.7,0.2,1.1,0.3c0.4,0.1,0.8,0.2,1.2,0.3c0.4,0.1,0.8,0.3,1.1,0.4
			s0.6,0.4,0.8,0.8c0.2,0.3,0.3,0.7,0.3,1.2c0,0.8-0.3,1.5-0.9,2c-0.6,0.5-1.5,0.8-2.7,0.8C41.1,19.1,39.9,18.6,39,17.6z"/>
		<path fill="#70767F" d="M48.6,8.1c-0.2-0.2-0.3-0.4-0.3-0.7c0-0.3,0.1-0.5,0.3-0.7c0.2-0.2,0.4-0.3,0.7-0.3s0.5,0.1,0.7,0.3
			c0.2,0.2,0.3,0.4,0.3,0.7c0,0.3-0.1,0.5-0.3,0.7s-0.4,0.3-0.7,0.3S48.8,8.3,48.6,8.1z M48.6,18.9V9.7H50v9.2H48.6z"/>
		<path fill="#70767F" d="M52.8,18.9V9.7h1.4V11c0.2-0.4,0.7-0.7,1.2-1c0.6-0.3,1.2-0.5,1.8-0.5c0.7,0,1.2,0.2,1.6,0.5
			c0.4,0.3,0.7,0.7,0.8,1.2c0.3-0.5,0.7-0.9,1.3-1.2c0.6-0.3,1.2-0.5,1.8-0.5c0.8,0,1.5,0.2,1.9,0.7s0.6,1.2,0.6,2.1v6.6h-1.4v-6.2
			c0-1.3-0.6-1.9-1.7-1.9c-0.5,0-0.9,0.1-1.4,0.4c-0.5,0.3-0.8,0.6-1.1,1v6.7h-1.4v-6.2c0-1.3-0.6-1.9-1.7-1.9
			c-0.4,0-0.9,0.1-1.3,0.4c-0.5,0.3-0.8,0.6-1.1,1v6.7H52.8z"/>
		<path fill="#70767F" d="M68.2,22.4V9.7h1.4v1.4c0.3-0.5,0.8-0.9,1.3-1.2c0.5-0.3,1.1-0.4,1.8-0.4c1.2,0,2.2,0.4,3,1.3
			s1.1,2,1.1,3.5c0,1.5-0.4,2.6-1.1,3.5s-1.7,1.3-3,1.3c-0.6,0-1.2-0.1-1.7-0.4c-0.5-0.3-1-0.7-1.4-1.2v4.9H68.2z M69.6,16.4
			c0.3,0.4,0.6,0.8,1.2,1c0.5,0.3,1,0.4,1.6,0.4c0.9,0,1.6-0.3,2.2-1c0.5-0.7,0.8-1.5,0.8-2.6c0-1-0.3-1.9-0.8-2.6
			c-0.5-0.7-1.2-1-2.2-1c-0.5,0-1.1,0.1-1.6,0.4c-0.5,0.3-0.9,0.6-1.2,1V16.4z"/>
		<path fill="#70767F" d="M79.1,18.9V6.2h1.4v12.7H79.1z"/>
		<path fill="#70767F" d="M81.9,9.7h1.6l3,7.5l3.1-7.5h1.5l-4.6,11c-0.5,1.2-1.4,1.8-2.7,1.9c-0.4,0-0.7,0-1-0.1l0.2-1.3
			c0.2,0.1,0.5,0.1,0.8,0.1c0.3,0,0.6-0.1,0.8-0.2c0.2-0.1,0.4-0.4,0.5-0.8l0.6-1.4L81.9,9.7z"/>
		<path fill="#BEC3CC" d="M91.8,17.6l0.7-1c0.3,0.4,0.8,0.7,1.3,0.9c0.5,0.3,1.1,0.4,1.7,0.4c0.7,0,1.2-0.1,1.6-0.4
			c0.4-0.3,0.6-0.7,0.6-1.1c0-0.3-0.1-0.5-0.3-0.7c-0.2-0.2-0.5-0.4-0.8-0.4s-0.7-0.2-1.1-0.3s-0.8-0.2-1.2-0.3
			c-0.4-0.1-0.8-0.3-1.1-0.4c-0.3-0.2-0.6-0.4-0.8-0.8c-0.2-0.3-0.3-0.7-0.3-1.2c0-0.8,0.3-1.4,0.9-1.9c0.6-0.5,1.4-0.8,2.5-0.8
			c1.4,0,2.5,0.5,3.4,1.4l-0.7,1c-0.3-0.3-0.7-0.6-1.1-0.8c-0.5-0.2-1-0.3-1.6-0.3c-0.6,0-1.1,0.1-1.5,0.4c-0.4,0.3-0.6,0.6-0.6,1.1
			c0,0.3,0.1,0.5,0.3,0.7c0.2,0.2,0.5,0.3,0.8,0.4s0.7,0.2,1.1,0.3c0.4,0.1,0.8,0.2,1.2,0.3c0.4,0.1,0.8,0.3,1.1,0.4
			s0.6,0.4,0.8,0.8c0.2,0.3,0.3,0.7,0.3,1.2c0,0.8-0.3,1.5-0.9,2c-0.6,0.5-1.5,0.8-2.7,0.8C94,19.1,92.8,18.6,91.8,17.6z"/>
		<path fill="#BEC3CC" d="M101.5,16.7c-0.4-0.7-0.5-1.5-0.5-2.4c0-0.9,0.2-1.7,0.5-2.4s0.9-1.3,1.6-1.7c0.7-0.4,1.5-0.6,2.4-0.6
			s1.7,0.2,2.4,0.6c0.7,0.4,1.2,1,1.6,1.7c0.4,0.7,0.5,1.5,0.5,2.4c0,0.9-0.2,1.7-0.5,2.4c-0.4,0.7-0.9,1.3-1.6,1.7
			c-0.7,0.4-1.5,0.7-2.4,0.7s-1.7-0.2-2.4-0.7C102.4,18,101.8,17.4,101.5,16.7z M102.4,14.3c0,1,0.3,1.8,0.8,2.5
			c0.5,0.7,1.3,1,2.2,1c0.6,0,1.2-0.2,1.6-0.5s0.8-0.8,1-1.3c0.2-0.5,0.3-1.1,0.3-1.8c0-0.6-0.1-1.2-0.3-1.7c-0.2-0.5-0.6-1-1-1.3
			c-0.5-0.3-1-0.5-1.6-0.5s-1.2,0.2-1.7,0.5c-0.5,0.3-0.8,0.8-1,1.3C102.5,13.1,102.4,13.7,102.4,14.3z"/>
		<path fill="#BEC3CC" d="M111.8,14.3c0-0.9,0.2-1.7,0.6-2.4c0.4-0.7,0.9-1.3,1.6-1.7c0.7-0.4,1.5-0.6,2.4-0.6
			c1.4,0,2.5,0.5,3.4,1.6l-0.9,0.9c-0.6-0.8-1.4-1.2-2.3-1.2c-1,0-1.7,0.3-2.3,1c-0.6,0.7-0.9,1.5-0.9,2.5s0.3,1.9,0.9,2.6
			c0.6,0.7,1.3,1,2.3,1c1,0,1.7-0.4,2.3-1.2l0.9,0.9c-0.8,1.1-1.9,1.6-3.4,1.6c-1.3,0-2.5-0.5-3.3-1.4
			C112.2,16.8,111.8,15.7,111.8,14.3z"/>
		<path fill="#BEC3CC" d="M121.8,8.1c-0.2-0.2-0.3-0.4-0.3-0.7c0-0.3,0.1-0.5,0.3-0.7c0.2-0.2,0.4-0.3,0.7-0.3s0.5,0.1,0.7,0.3
			c0.2,0.2,0.3,0.4,0.3,0.7c0,0.3-0.1,0.5-0.3,0.7s-0.4,0.3-0.7,0.3S122,8.3,121.8,8.1z M121.7,18.9V9.7h1.4v9.2H121.7z"/>
		<path fill="#BEC3CC" d="M125.5,16.1c0-0.5,0.1-0.9,0.3-1.3c0.2-0.4,0.4-0.7,0.7-1c0.3-0.2,0.6-0.4,1-0.5c0.4-0.1,0.8-0.2,1.2-0.2
			c1.3,0,2.3,0.4,3,1.2v-1.7c0-0.6-0.2-1.1-0.7-1.4c-0.4-0.3-1-0.5-1.7-0.5c-1.1,0-2,0.4-2.8,1.3l-0.7-1c1-1,2.2-1.5,3.7-1.5
			c0.5,0,1,0.1,1.4,0.2c0.4,0.1,0.8,0.3,1.1,0.5c0.3,0.2,0.6,0.6,0.8,1c0.2,0.4,0.3,0.9,0.3,1.4v6.3h-1.4v-1c-0.8,0.9-1.8,1.3-3,1.3
			c-0.4,0-0.8-0.1-1.1-0.2c-0.4-0.1-0.7-0.3-1-0.6c-0.3-0.2-0.6-0.6-0.7-1C125.6,17,125.5,16.6,125.5,16.1z M126.9,16.1
			c0,0.6,0.2,1.1,0.6,1.4c0.4,0.4,1,0.6,1.7,0.6c0.5,0,1-0.1,1.4-0.3c0.4-0.2,0.8-0.5,1.1-0.8v-1.7c-0.3-0.4-0.6-0.6-1.1-0.8
			c-0.4-0.2-0.9-0.3-1.4-0.3c-0.7,0-1.2,0.2-1.6,0.6C127.1,15,126.9,15.5,126.9,16.1z"/>
		<path fill="#BEC3CC" d="M136,18.9V6.2h1.4v12.7H136z"/>
	</g>
</g>
<g>
	<path fill="#00CC99" d="M9.6,56.2c-0.1,0-0.1,0-0.2,0c-0.2-0.1-0.3-0.3-0.3-0.5v-4.3H8.9C4,51.4,0,47.7,0,43.2S4,35,8.9,35h10.4
		c4.9,0,8.9,3.7,8.9,8.2c0,1.1-0.2,2.2-0.7,3.2c-0.1,0.3-0.4,0.4-0.7,0.2c-0.3-0.1-0.4-0.4-0.2-0.7c0.4-0.9,0.6-1.8,0.6-2.8
		c0-4-3.5-7.2-7.9-7.2H8.9C4.5,36,1,39.2,1,43.2c0,4,3.5,7.2,7.9,7.2h0.6c0.3,0,0.5,0.2,0.5,0.5v3.6l4.3-4c0.1-0.1,0.2-0.1,0.3-0.1
		h0.6c0.3,0,0.5,0.2,0.5,0.5s-0.2,0.5-0.5,0.5h-0.5l-5,4.6C9.8,56.2,9.7,56.2,9.6,56.2z"/>
	<g>
		<path fill="#00CC99" d="M23.8,61c-3.8,0-7-2.9-7-6.5c0-3.6,3.1-6.5,7-6.5c3.8,0,7,2.9,7,6.5C30.8,58.1,27.6,61,23.8,61z
			 M23.8,49.1c-3.3,0-6,2.4-6,5.5c0,3,2.7,5.5,6,5.5s6-2.4,6-5.5C29.8,51.5,27.1,49.1,23.8,49.1z"/>
		<path fill="#00CC99" d="M23.8,58c-0.3,0-0.5-0.2-0.5-0.5v-6c0-0.3,0.2-0.5,0.5-0.5s0.5,0.2,0.5,0.5v6C24.3,57.8,24.1,58,23.8,58z"
			/>
		<path fill="#00CC99" d="M27,55h-6.5c-0.3,0-0.5-0.2-0.5-0.5s0.2-0.5,0.5-0.5H27c0.3,0,0.5,0.2,0.5,0.5S27.3,55,27,55z"/>
	</g>
</g>
<g>
	<path fill="#63656A" d="M6.6,84.2c-3.7,0-6.6-3-6.6-6.6S3,71,6.6,71s6.6,3,6.6,6.6S10.3,84.2,6.6,84.2z M6.6,72
		C3.5,72,1,74.5,1,77.6s2.5,5.6,5.6,5.6s5.6-2.5,5.6-5.6S9.7,72,6.6,72z"/>
	<path fill="#63656A" d="M15.5,86.5c-0.1,0-0.2,0-0.3-0.1l-4.5-4.1c-0.2-0.2-0.2-0.5,0-0.7c0.2-0.2,0.5-0.2,0.7,0l4.5,4.1
		c0.2,0.2,0.2,0.5,0,0.7C15.8,86.5,15.6,86.5,15.5,86.5z"/>
</g>
</svg>
